<svg xmlns="http://www.w3.org/2000/svg" xmlns:xlink="http://www.w3.org/1999/xlink" id="Layer_1" width="700" height="300" x="0" y="0" enable-background="new 0 0 700 300" version="1.1" viewBox="0 0 700 300" xml:space="preserve"><g><defs><rect id="SVGID_1_" width="637" height="267" x="31" y="16"/></defs><clipPath id="SVGID_2_"><use overflow="visible" xlink:href="#SVGID_1_"/></clipPath><path fill="#FFF" d="M180.313,112.687c6.249,6.248,6.249,16.379,0,22.627 c-6.248,6.249-16.379,6.249-22.627,0c-6.249-6.248-6.249-16.379,0-22.627C163.935,106.438,174.065,106.438,180.313,112.687" clip-path="url(#SVGID_2_)"/><path fill="none" stroke="#000" stroke-linecap="round" stroke-linejoin="round" stroke-miterlimit="10" d="M180.313,112.687c6.249,6.248,6.249,16.379,0,22.627c-6.248,6.249-16.379,6.249-22.627,0c-6.249-6.248-6.249-16.379,0-22.627 C163.935,106.438,174.065,106.438,180.313,112.687" clip-path="url(#SVGID_2_)"/><polyline fill="none" stroke="#000" stroke-linecap="round" stroke-linejoin="round" stroke-miterlimit="10" points="169.5 116 169.5 132 169 132" clip-path="url(#SVGID_2_)"/><line x1="161" x2="177" y1="124.5" y2="124.5" fill="none" stroke="#000" stroke-linecap="round" stroke-linejoin="round" stroke-miterlimit="10" clip-path="url(#SVGID_2_)"/><line x1="185" x2="239.1" y1="124.5" y2="124.5" fill="none" stroke="#000" stroke-linecap="round" stroke-linejoin="round" stroke-miterlimit="10" clip-path="url(#SVGID_2_)"/><polygon points="247.1 124.5 239.1 121.5 239.1 127.5" clip-path="url(#SVGID_2_)"/><polygon fill="none" stroke="#000" stroke-miterlimit="10" points="247.1 124.5 239.1 121.5 239.1 127.5" clip-path="url(#SVGID_2_)"/><rect width="176" height="32" x="249.5" y="108.5" fill="#FFF" clip-path="url(#SVGID_2_)"/><rect width="176" height="32" x="249.5" y="108.5" fill="none" stroke="#000" stroke-linecap="round" stroke-linejoin="round" stroke-miterlimit="10" clip-path="url(#SVGID_2_)"/><g clip-path="url(#SVGID_2_)"><text font-family="'HelveticaNeue'" font-size="14" transform="matrix(1 0 0 1 304.457 128.8047)">Delay Line</text></g><path fill="#FFF" d="M564.313,112.687c6.249,6.248,6.249,16.379,0,22.627 c-6.248,6.249-16.379,6.249-22.627,0c-6.249-6.248-6.249-16.379,0-22.627C547.935,106.438,558.065,106.438,564.313,112.687" clip-path="url(#SVGID_2_)"/><path fill="none" stroke="#000" stroke-linecap="round" stroke-linejoin="round" stroke-miterlimit="10" d="M564.314,112.687c6.248,6.248,6.248,16.379,0,22.627c-6.25,6.249-16.38,6.249-22.629,0c-6.248-6.248-6.248-16.379,0-22.627 C547.935,106.438,558.064,106.438,564.314,112.687" clip-path="url(#SVGID_2_)"/><polyline fill="none" stroke="#000" stroke-linecap="round" stroke-linejoin="round" stroke-miterlimit="10" points="553.5 116 553.5 132 553 132" clip-path="url(#SVGID_2_)"/><line x1="545" x2="561" y1="124.5" y2="124.5" fill="none" stroke="#000" stroke-linecap="round" stroke-linejoin="round" stroke-miterlimit="10" clip-path="url(#SVGID_2_)"/><line x1="569" x2="607.1" y1="124.5" y2="124.5" fill="none" stroke="#000" stroke-linecap="round" stroke-linejoin="round" stroke-miterlimit="10" clip-path="url(#SVGID_2_)"/><polygon points="615.1 124.5 607.1 121.5 607.1 127.5" clip-path="url(#SVGID_2_)"/><polygon fill="none" stroke="#000" stroke-miterlimit="10" points="615.1 124.5 607.1 121.5 607.1 127.5" clip-path="url(#SVGID_2_)"/><polygon fill="#FFF" points="473.5 82 513 61 473.5 40" clip-path="url(#SVGID_2_)"/><polygon fill="none" stroke="#000" stroke-linecap="round" stroke-linejoin="round" stroke-miterlimit="10" points="473.5 82 513 61 473.5 40" clip-path="url(#SVGID_2_)"/><polyline fill="none" stroke="#000" stroke-linecap="round" stroke-linejoin="round" stroke-miterlimit="10" points="512.385 60.677 553.5 60 553.5 98.1" clip-path="url(#SVGID_2_)"/><polygon points="553.5 106.1 556.5 98.1 550.5 98.1" clip-path="url(#SVGID_2_)"/><polygon fill="none" stroke="#000" stroke-miterlimit="10" points="553.5 106.1 556.5 98.1 550.5 98.1" clip-path="url(#SVGID_2_)"/><polygon fill="#FFF" points="473.5 257 513 236 473.5 215" clip-path="url(#SVGID_2_)"/><polygon fill="none" stroke="#000" stroke-linecap="round" stroke-linejoin="round" stroke-miterlimit="10" points="473.5 257 513 236 473.5 215" clip-path="url(#SVGID_2_)"/><line x1="337.5" x2="337.5" y1="236" y2="149.9" fill="none" stroke="#000" stroke-linecap="round" stroke-linejoin="round" stroke-miterlimit="10" clip-path="url(#SVGID_2_)"/><polygon points="337.5 141.9 334.5 149.9 340.5 149.9" clip-path="url(#SVGID_2_)"/><polygon fill="none" stroke="#000" stroke-miterlimit="10" points="337.5 141.9 334.5 149.9 340.5 149.9" clip-path="url(#SVGID_2_)"/><polygon fill="#FFF" points="233.5 215 193 236 233.5 257" clip-path="url(#SVGID_2_)"/><polygon fill="none" stroke="#000" stroke-linecap="round" stroke-linejoin="round" stroke-miterlimit="10" points="233.5 215 193 236 233.5 257" clip-path="url(#SVGID_2_)"/><polyline fill="none" stroke="#000" stroke-linecap="round" stroke-linejoin="round" stroke-miterlimit="10" points="193 236.5 169.5 236.5 169.5 149.9" clip-path="url(#SVGID_2_)"/><polygon points="169.5 141.9 166.5 149.9 172.5 149.9" clip-path="url(#SVGID_2_)"/><polygon fill="none" stroke="#000" stroke-miterlimit="10" points="169.5 141.9 166.5 149.9 172.5 149.9" clip-path="url(#SVGID_2_)"/><line x1="233" x2="473" y1="236.5" y2="236.5" fill="none" stroke="#000" stroke-linecap="round" stroke-linejoin="round" stroke-miterlimit="10" clip-path="url(#SVGID_2_)"/><polyline fill="none" stroke="#000" stroke-linecap="round" stroke-linejoin="round" stroke-miterlimit="10" points="513 236.5 553.5 236.5 553.5 149.9" clip-path="url(#SVGID_2_)"/><polygon points="553.5 141.9 550.5 149.9 556.5 149.9" clip-path="url(#SVGID_2_)"/><polygon fill="none" stroke="#000" stroke-miterlimit="10" points="553.5 141.9 550.5 149.9 556.5 149.9" clip-path="url(#SVGID_2_)"/><line x1="73" x2="143.1" y1="124.5" y2="124.5" fill="none" stroke="#000" stroke-linecap="round" stroke-linejoin="round" stroke-miterlimit="10" clip-path="url(#SVGID_2_)"/><polygon points="151.1 124.5 143.1 121.5 143.1 127.5" clip-path="url(#SVGID_2_)"/><polygon fill="none" stroke="#000" stroke-miterlimit="10" points="151.1 124.5 143.1 121.5 143.1 127.5" clip-path="url(#SVGID_2_)"/><polyline fill="none" stroke="#000" stroke-linecap="round" stroke-linejoin="round" stroke-miterlimit="10" points="121.424 124 121 60 463.1 60.919" clip-path="url(#SVGID_2_)"/><polygon points="471.1 60.941 463.108 57.919 463.092 63.919" clip-path="url(#SVGID_2_)"/><polygon fill="none" stroke="#000" stroke-miterlimit="10" points="471.1 60.941 463.108 57.919 463.092 63.919" clip-path="url(#SVGID_2_)"/><path fill="#FFF" d="M453.385,169.857c10.153,7.811,10.153,20.475,0,28.285s-26.616,7.811-36.77,0 s-10.153-20.475,0-28.285C426.769,162.048,443.231,162.048,453.385,169.857" clip-path="url(#SVGID_2_)"/><path fill="none" stroke="#000" stroke-linecap="round" stroke-linejoin="round" stroke-miterlimit="10" d="M453.385,169.857c10.153,7.811,10.153,20.475,0,28.285c-10.153,7.81-26.616,7.81-36.77,0c-10.153-7.811-10.153-20.475,0-28.285 C426.769,162.048,443.231,162.048,453.385,169.857" clip-path="url(#SVGID_2_)"/><g clip-path="url(#SVGID_2_)"><text font-family="'HelveticaNeue'" font-size="14" transform="matrix(1 0 0 1 421.7695 188.8047)">LFO</text></g><line x1="377.5" x2="377.5" y1="236" y2="149.9" fill="none" stroke="#000" stroke-dasharray="4 4" stroke-linecap="round" stroke-linejoin="round" stroke-miterlimit="10" clip-path="url(#SVGID_2_)"/><polygon points="377.5 141.9 374.5 149.9 380.5 149.9" clip-path="url(#SVGID_2_)"/><polygon fill="none" stroke="#000" stroke-miterlimit="10" points="377.5 141.9 374.5 149.9 380.5 149.9" clip-path="url(#SVGID_2_)"/><line x1="296.75" x2="296.974" y1="236" y2="149.9" fill="none" stroke="#000" stroke-dasharray="4 4" stroke-linecap="round" stroke-linejoin="round" stroke-miterlimit="10" clip-path="url(#SVGID_2_)"/><polygon points="296.995 141.9 293.974 149.893 299.974 149.908" clip-path="url(#SVGID_2_)"/><polygon fill="none" stroke="#000" stroke-miterlimit="10" points="296.995 141.9 293.974 149.893 299.974 149.908" clip-path="url(#SVGID_2_)"/><g clip-path="url(#SVGID_2_)"><text font-family="'HelveticaNeue-Italic'" font-size="14" transform="matrix(1 0 0 1 36.3062 128.3047)">input</text></g><g clip-path="url(#SVGID_2_)"><text font-family="'HelveticaNeue-Italic'" font-size="14" transform="matrix(1 0 0 1 622.1367 128.8047)">output</text></g><g clip-path="url(#SVGID_2_)"><text font-family="'HelveticaNeue-Italic'" font-size="14" transform="matrix(1 0 0 1 462.0977 34.3047)">Dry Level</text></g><g clip-path="url(#SVGID_2_)"><text transform="matrix(1 0 0 1 462.1758 274.3047)"><tspan x="0" y="0" font-family="'HelveticaNeue-Italic'" font-size="14">W</tspan><tspan x="12.18" y="0" font-family="'HelveticaNeue-Italic'" font-size="14">et Level</tspan></text></g><g clip-path="url(#SVGID_2_)"><text font-family="'HelveticaNeue-Italic'" font-size="14" transform="matrix(1 0 0 1 190.4028 274.3047)">Feedback</text></g><g clip-path="url(#SVGID_2_)"><text font-family="'HelveticaNeue-Italic'" font-size="14" transform="matrix(1 0 0 1 258.6802 250.3047)">min delay</text></g><g clip-path="url(#SVGID_2_)"><text font-family="'HelveticaNeue-Italic'" font-size="14" transform="matrix(1 0 0 1 357.126 250.3047)">max delay</text></g><polyline fill="none" stroke="#000" stroke-linecap="round" stroke-linejoin="round" stroke-miterlimit="10" points="337 160.465 399 184.5 409 184.5" clip-path="url(#SVGID_2_)"/></g></svg>